<?xml version="1.0" encoding="UTF-8" standalone="no"?>
  <!DOCTYPE svg PUBLIC "-//W3C//DTD SVG 1.1//EN" "http://www.w3.org/Graphics/SVG/1.1/DTD/svg11.dtd">
  <svg xmlns="http://www.w3.org/2000/svg" width="900" height="500" viewBox="415 570 900 500">
    <defs>
      <!-- Define marker for arrow heads -->
      <marker id="arrowhead" markerWidth="6" markerHeight="8" refX="0" refY="4" orient="auto">
        <polygon points="0 0, 6 4, 0 8" fill="#555" />
      </marker>
    </defs>
    <rect x="415" y="570" width="900" height="500" fill="white"/>
    <g class="edges">
      <path d="M520,850 C520,882.4 810,853.6 810,886" stroke="#555" stroke-width="1.5" fill="none" marker-end="url(#arrowhead)"/>
    <path d="M750,850 C750,882.4 863.3333333333334,853.6 863.3333333333334,886" stroke="#555" stroke-width="1.5" fill="none" marker-end="url(#arrowhead)"/>
    <path d="M980,850 C980,882.4 916.6666666666666,853.6 916.6666666666666,886" stroke="#555" stroke-width="1.5" fill="none" marker-end="url(#arrowhead)"/>
    <path d="M1210,850 C1210,882.4 970,853.6 970,886" stroke="#555" stroke-width="1.5" fill="none" marker-end="url(#arrowhead)"/>
    <path d="M865,640 C865,771.4 520,654.6 520,786" stroke="#555" stroke-width="1.5" fill="none" marker-end="url(#arrowhead)"/>
    <path d="M865,640 C865,681.4 750,644.6 750,686" stroke="#555" stroke-width="1.5" fill="none" marker-end="url(#arrowhead)"/>
    <path d="M865,640 C865,681.4 980,644.6 980,686" stroke="#555" stroke-width="1.5" fill="none" marker-end="url(#arrowhead)"/>
    <path d="M1210,750 C1210,782.4 1210,753.6 1210,786" stroke="#555" stroke-width="1.5" fill="none" marker-end="url(#arrowhead)"/>
    <path d="M750,750 C750,782.4 750,753.6 750,786" stroke="#555" stroke-width="1.5" fill="none" marker-end="url(#arrowhead)"/>
    <path d="M980,750 C980,782.4 980,753.6 980,786" stroke="#555" stroke-width="1.5" fill="none" marker-end="url(#arrowhead)"/>
    <path d="M865,640 C865,681.4 1210,644.6 1210,686" stroke="#555" stroke-width="1.5" fill="none" marker-end="url(#arrowhead)"/>
    <path d="M890,950 C890,982.4 865,953.6 865,986" stroke="#555" stroke-width="1.5" fill="none" marker-end="url(#arrowhead)"/>
    </g>
    <g class="nodes">
      <g transform="translate(790,900)">
        <rect width="200" height="50" rx="5" ry="5" fill="hsl(33, 63%, 78%)" stroke="#949494" stroke-width="1"/>
        <text x="100" y="21" text-anchor="middle" dominant-baseline="middle" font-family="Arial, sans-serif" font-size="12px" font-weight="bold" fill="#000">concat</text>
        <text x="100" y="35" text-anchor="middle" dominant-baseline="middle" font-family="Arial, sans-serif" font-size="10px" fill="#000">DepthConcat</text>
        <circle cx="20" cy="0" r="4" fill="#555" stroke="white" stroke-width="1" /><circle cx="73.33333333333334" cy="0" r="4" fill="#555" stroke="white" stroke-width="1" /><circle cx="126.66666666666667" cy="0" r="4" fill="#555" stroke="white" stroke-width="1" /><circle cx="180" cy="0" r="4" fill="#555" stroke="white" stroke-width="1" />
        <circle cx="100" cy="50" r="4" fill="#555" stroke="white" stroke-width="1" />
      </g>
    <g transform="translate(445,800)">
        <rect width="150" height="50" rx="5" ry="5" fill="#b3d0ff" stroke="#949494" stroke-width="1"/>
        <text x="75" y="21" text-anchor="middle" dominant-baseline="middle" font-family="Arial, sans-serif" font-size="12px" font-weight="bold" fill="#000">conv1x1</text>
        <text x="75" y="35" text-anchor="middle" dominant-baseline="middle" font-family="Arial, sans-serif" font-size="10px" fill="#000">Conv2d</text>
        <circle cx="75" cy="0" r="4" fill="#555" stroke="white" stroke-width="1" />
        <circle cx="75" cy="50" r="4" fill="#555" stroke="white" stroke-width="1" />
      </g>
    <g transform="translate(675,700)">
        <rect width="150" height="50" rx="5" ry="5" fill="#b3d0ff" stroke="#949494" stroke-width="1"/>
        <text x="75" y="21" text-anchor="middle" dominant-baseline="middle" font-family="Arial, sans-serif" font-size="12px" font-weight="bold" fill="#000">conv1x1_3x3reduce</text>
        <text x="75" y="35" text-anchor="middle" dominant-baseline="middle" font-family="Arial, sans-serif" font-size="10px" fill="#000">Conv2d</text>
        <circle cx="75" cy="0" r="4" fill="#555" stroke="white" stroke-width="1" />
        <circle cx="75" cy="50" r="4" fill="#555" stroke="white" stroke-width="1" />
      </g>
    <g transform="translate(905,700)">
        <rect width="150" height="50" rx="5" ry="5" fill="#b3d0ff" stroke="#949494" stroke-width="1"/>
        <text x="75" y="21" text-anchor="middle" dominant-baseline="middle" font-family="Arial, sans-serif" font-size="12px" font-weight="bold" fill="#000">conv1x1_5x5reduce</text>
        <text x="75" y="35" text-anchor="middle" dominant-baseline="middle" font-family="Arial, sans-serif" font-size="10px" fill="#000">Conv2d</text>
        <circle cx="75" cy="0" r="4" fill="#555" stroke="white" stroke-width="1" />
        <circle cx="75" cy="50" r="4" fill="#555" stroke="white" stroke-width="1" />
      </g>
    <g transform="translate(1135,800)">
        <rect width="150" height="50" rx="5" ry="5" fill="#b3d0ff" stroke="#949494" stroke-width="1"/>
        <text x="75" y="21" text-anchor="middle" dominant-baseline="middle" font-family="Arial, sans-serif" font-size="12px" font-weight="bold" fill="#000">conv1x1_pool_proj</text>
        <text x="75" y="35" text-anchor="middle" dominant-baseline="middle" font-family="Arial, sans-serif" font-size="10px" fill="#000">Conv2d</text>
        <circle cx="75" cy="0" r="4" fill="#555" stroke="white" stroke-width="1" />
        <circle cx="75" cy="50" r="4" fill="#555" stroke="white" stroke-width="1" />
      </g>
    <g transform="translate(675,800)">
        <rect width="150" height="50" rx="5" ry="5" fill="#b3d0ff" stroke="#949494" stroke-width="1"/>
        <text x="75" y="21" text-anchor="middle" dominant-baseline="middle" font-family="Arial, sans-serif" font-size="12px" font-weight="bold" fill="#000">conv3x3</text>
        <text x="75" y="35" text-anchor="middle" dominant-baseline="middle" font-family="Arial, sans-serif" font-size="10px" fill="#000">Conv2d</text>
        <circle cx="75" cy="0" r="4" fill="#555" stroke="white" stroke-width="1" />
        <circle cx="75" cy="50" r="4" fill="#555" stroke="white" stroke-width="1" />
      </g>
    <g transform="translate(905,800)">
        <rect width="150" height="50" rx="5" ry="5" fill="#b3d0ff" stroke="#949494" stroke-width="1"/>
        <text x="75" y="21" text-anchor="middle" dominant-baseline="middle" font-family="Arial, sans-serif" font-size="12px" font-weight="bold" fill="#000">conv5x5</text>
        <text x="75" y="35" text-anchor="middle" dominant-baseline="middle" font-family="Arial, sans-serif" font-size="10px" fill="#000">Conv2d</text>
        <circle cx="75" cy="0" r="4" fill="#555" stroke="white" stroke-width="1" />
        <circle cx="75" cy="50" r="4" fill="#555" stroke="white" stroke-width="1" />
      </g>
    <g transform="translate(790,600)">
        <rect width="150" height="40" rx="5" ry="5" fill="#ffffff" stroke="#000000" stroke-width="1"/>
        <text x="75" y="20" text-anchor="middle" dominant-baseline="middle" font-family="Arial, sans-serif" font-size="12px" font-weight="bold" fill="#000">input</text>
        
        
        <circle cx="75" cy="40" r="4" fill="#555" stroke="white" stroke-width="1" />
      </g>
    <g transform="translate(1135,700)">
        <rect width="150" height="50" rx="5" ry="5" fill="hsl(38, 68%, 83%)" stroke="#949494" stroke-width="1"/>
        <text x="75" y="21" text-anchor="middle" dominant-baseline="middle" font-family="Arial, sans-serif" font-size="12px" font-weight="bold" fill="#000">maxpool</text>
        <text x="75" y="35" text-anchor="middle" dominant-baseline="middle" font-family="Arial, sans-serif" font-size="10px" fill="#000">torch.nn.MaxPool2d</text>
        <circle cx="75" cy="0" r="4" fill="#555" stroke="white" stroke-width="1" />
        <circle cx="75" cy="50" r="4" fill="#555" stroke="white" stroke-width="1" />
      </g>
    <g transform="translate(790,1000)">
        <rect width="150" height="40" rx="5" ry="5" fill="#ffffff" stroke="#000000" stroke-width="1"/>
        <text x="75" y="20" text-anchor="middle" dominant-baseline="middle" font-family="Arial, sans-serif" font-size="12px" font-weight="bold" fill="#000">output</text>
        
        <circle cx="75" cy="0" r="4" fill="#555" stroke="white" stroke-width="1" />
        
      </g>
    </g>
  </svg>